<svg width="33" height="50" viewBox="0 0 33 50" fill="none" xmlns="http://www.w3.org/2000/svg">
<path d="M33 16.5082C33 30.7111 21.7601 41.4645 17.8342 44.7876C17.0641 45.4394 15.9359 45.4394 15.1658 44.7876C11.2399 41.4645 0 30.7111 0 16.5082C0 7.39552 7.38734 0.00817871 16.5 0.00817871C25.6127 0.00817871 33 7.39552 33 16.5082Z" fill="white"/>
<path d="M16.4997 27.084C22.3406 27.084 27.0755 22.3491 27.0755 16.5082C27.0755 10.6673 22.3406 5.93233 16.4997 5.93233C10.6588 5.93233 5.92383 10.6673 5.92383 16.5082C5.92383 22.3491 10.6588 27.084 16.4997 27.084Z" fill="#022C56"/>
<path d="M27.1678 45.6852C27.1678 47.7645 22.3921 49.45 16.5006 49.45C10.6091 49.45 5.8335 47.7645 5.8335 45.6852C5.8335 44.3031 7.94336 43.0949 11.0885 42.4401C12.4349 43.81 13.6268 44.8758 14.4805 45.599C15.0446 46.0764 15.7622 46.339 16.5011 46.339C17.2401 46.339 17.9577 46.0764 18.5218 45.599C19.376 44.8758 20.5674 43.8105 21.9138 42.4401C25.0589 43.0949 27.1688 44.3031 27.1688 45.6852H27.1678Z" fill="white"/>
</svg>
