<svg width="26" height="22" viewBox="0 0 26 22" fill="none" xmlns="http://www.w3.org/2000/svg">
<path d="M8.3856 9.86362L0.650125 18.8993C0.22348 18.173 0 17.3401 0 16.4969V4.78452C0 3.87536 0.259034 2.98652 0.746628 2.21957L8.3856 9.86362Z" fill="white"/>
<path d="M10.7423 10.2649C11.8089 9.0154 13.6882 8.87319 14.9326 9.9398C15.0494 10.0414 15.156 10.148 15.2576 10.2649L23.953 20.4231C23.1505 20.9818 22.1957 21.2865 21.2154 21.2814H4.78451C3.80424 21.2814 2.84937 20.9818 2.04688 20.4231L10.7423 10.2649Z" fill="white"/>
<path d="M25.3548 18.8993L17.6143 9.85854L25.2532 2.21957C25.7408 2.98652 25.9999 3.87536 25.9999 4.78452V16.4969C26.0049 17.3401 25.7815 18.173 25.3548 18.8993Z" fill="white"/>
<path d="M16.2327 8.34497C14.3636 6.78061 11.6412 6.78061 9.77206 8.34497L2.18896 0.766953C2.96099 0.264122 3.85999 8.58307e-06 4.78439 8.58307e-06H21.2204C22.1397 8.58307e-06 23.0438 0.264122 23.8158 0.766953L16.2327 8.34497Z" fill="white"/>
</svg>
