<svg width="32" height="32" viewBox="0 0 32 32" fill="none" xmlns="http://www.w3.org/2000/svg">
<path fill-rule="evenodd" clip-rule="evenodd" d="M15.5265 20.9505C9.60943 20.9505 4.81641 25.8982 4.81641 32.0001H6.74412C6.74412 26.9955 10.6757 22.9366 15.5291 22.9366C20.3826 22.9366 24.3142 26.9928 24.3142 32.0001H26.2419C26.2419 25.8982 21.4462 20.9505 15.5291 20.9505H15.5265Z" fill="#E32527"/>
<path fill-rule="evenodd" clip-rule="evenodd" d="M15.5267 24.9254C11.7396 24.9254 8.66943 28.0929 8.66943 32.0001H10.5971C10.5971 29.1903 12.8033 26.9142 15.5267 26.9142C18.2502 26.9142 20.4563 29.1903 20.4563 32.0001H22.384C22.384 28.0929 19.3139 24.9254 15.5267 24.9254Z" fill="#E32527"/>
<path fill-rule="evenodd" clip-rule="evenodd" d="M15.5268 28.903C13.8696 28.903 12.5249 30.2902 12.5249 32H18.5313C18.5313 30.2902 17.1866 28.903 15.5294 28.903H15.5268Z" fill="#E32527"/>
<path fill-rule="evenodd" clip-rule="evenodd" d="M29.6931 8.2968L16.8872 0.669394C16.0205 0.151869 15.033 0.151869 14.1663 0.669394L1.36043 8.2968C0.496373 8.81161 0 9.69493 0 10.7246V29.1929C0 30.7373 1.22124 32 2.72086 32H3.04127C3.04127 24.8874 8.63006 19.1188 15.5268 19.1188C22.4235 19.1188 28.0123 24.8847 28.0123 32H28.3353C29.8323 32 31.0535 30.7401 31.0535 29.1929V10.7246C31.0535 9.69493 30.5598 8.81161 29.6957 8.2968H29.6931ZM14.97 15.5232H12.1362V12.6023H14.97V15.5232ZM14.97 11.4507H12.1362V8.52711H14.97V11.4507ZM18.9147 15.5232H16.0835V12.6023H18.9147V15.5232ZM18.9147 11.4507H16.0835V8.52711H18.9147V11.4507Z" fill="#012B55"/>
</svg>
