<svg width="12" height="17" viewBox="0 0 12 17" fill="none" xmlns="http://www.w3.org/2000/svg">
<path d="M11.3466 5.6733C11.3466 10.5568 7.48193 14.2542 6.13203 15.3968C5.86725 15.6209 5.47936 15.6209 5.21457 15.3968C3.86468 14.2542 0 10.5568 0 5.6733C0 2.54004 2.54004 0 5.6733 0C8.80657 0 11.3466 2.54004 11.3466 5.6733Z" fill="#E32527"/>
<path d="M5.67329 9.30971C7.6816 9.30971 9.30965 7.68166 9.30965 5.67335C9.30965 3.66504 7.6816 2.03699 5.67329 2.03699C3.66498 2.03699 2.03693 3.66504 2.03693 5.67335C2.03693 7.68166 3.66498 9.30971 5.67329 9.30971Z" fill="white"/>
<path d="M9.34124 15.7055C9.34124 16.4204 7.6992 17 5.67349 17C3.64777 17 2.00574 16.4204 2.00574 15.7055C2.00574 15.2303 2.73119 14.8149 3.81261 14.5897C4.27555 15.0607 4.68536 15.4272 4.9789 15.6759C5.17285 15.84 5.41957 15.9303 5.67366 15.9303C5.92775 15.9303 6.17448 15.84 6.36843 15.6759C6.66215 15.4272 7.07178 15.0609 7.53472 14.5897C8.61614 14.8149 9.34159 15.2303 9.34159 15.7055H9.34124Z" fill="#E32527"/>
</svg>
