<svg width="168" height="32" viewBox="0 0 168 32" fill="none" xmlns="http://www.w3.org/2000/svg">
<path d="M58.7086 10.7927H61.8129V29.6655H58.7086V14.9277L52.7547 29.6737H49.2171L43.2685 14.9277V14.9358L43.2659 29.6655H40.1616V10.7927H43.2659H44.9651L50.9872 25.723L57.0094 10.7927H58.7086Z" fill="#E32527"/>
<path d="M76.2786 10.8037H80.1288L73.4238 20.2279L73.0509 20.7509V29.6657H69.9466V20.7536L69.5736 20.2307L62.8687 10.801H66.7241L71.5013 17.521L76.2812 10.801L76.2786 10.8037Z" fill="#E32527"/>
<path d="M96.798 29.9475C91.5401 29.9475 89.8908 26.3517 89.8199 26.1919L92.6458 24.8641L92.6327 24.8343C92.6773 24.9237 93.7567 27.0156 97.5334 26.7148C100.871 26.4493 101.124 25.0646 101.231 24.4712C101.294 24.1298 101.281 23.615 100.866 23.1001C100.493 22.6368 99.5267 21.8618 97.2235 21.8618C94.4107 21.8618 92.1232 20.9432 90.7837 19.2768C89.8777 18.1496 89.51 16.7947 89.7516 15.4589C90.114 13.4537 91.5401 10.9825 96.2649 10.6086C102.29 10.1317 104.141 14.1555 104.217 14.3262L101.391 15.654L101.405 15.6838C101.36 15.5944 100.28 13.5052 96.5038 13.8033C93.1658 14.0688 92.9137 15.4535 92.806 16.0469C92.7167 16.5346 92.9583 16.96 93.1737 17.2283C93.5177 17.6564 94.605 18.6536 97.2235 18.6536C100.617 18.6536 102.376 19.9542 103.256 21.0489C104.167 22.1788 104.54 23.6394 104.286 25.0565C103.923 27.0617 102.497 29.5329 97.7724 29.9068C97.4362 29.9339 97.1105 29.9447 96.8006 29.9475H96.798Z" fill="#012B55"/>
<path d="M115.518 21.7967H109.352V29.6655H106.247V10.7927H109.352H115.518C118.457 10.7927 120.85 13.2612 120.85 16.2933C120.85 19.3255 118.457 21.794 115.518 21.794V21.7967ZM109.352 18.5938H115.518C116.745 18.5938 117.745 17.5642 117.745 16.2961C117.745 15.0279 116.747 13.9983 115.518 13.9983H109.352V18.5911V18.5938Z" fill="#012B55"/>
<path d="M129.808 10.7927L137.424 29.6764H134.06L134.052 29.6574H133.769C132.595 27.6902 130.488 26.3733 128.088 26.3733C125.687 26.3733 123.581 27.6875 122.407 29.6574H122.168L122.16 29.6764H118.793L118.801 29.6574H118.785C118.891 29.3702 119.011 29.0884 119.14 28.812L126.41 10.7927H129.806H129.808ZM131.647 23.6853L128.114 14.9277L124.59 23.6663C125.68 23.2409 126.859 22.9998 128.093 22.9998C129.328 22.9998 130.543 23.2463 131.647 23.6853Z" fill="#012B55"/>
<path d="M139.898 20.2576C139.898 23.8317 142.716 26.7418 146.183 26.7418C148.098 26.7418 149.815 25.8531 150.971 24.4549L153.687 26.0725C151.972 28.4218 149.248 29.9447 146.183 29.9447C141.007 29.9447 136.794 25.6011 136.794 20.2576C136.794 14.9141 141.007 10.5706 146.183 10.5706C149.248 10.5706 151.974 12.0934 153.692 14.4427L150.971 16.0658C149.818 14.6649 148.1 13.7761 146.183 13.7761C142.719 13.7761 139.898 16.6836 139.898 20.2603V20.2576Z" fill="#012B55"/>
<path d="M167.997 10.7927V13.9983H158.348V18.6562H166.839V21.859H158.348V26.4546H167.997V29.6574H158.348V29.6655H155.244V29.6574V26.4546V21.859V18.6562V13.9983V10.7927H168H167.997Z" fill="#012B55"/>
<path fill-rule="evenodd" clip-rule="evenodd" d="M15.5268 20.9514C9.60967 20.9514 4.81665 25.8993 4.81665 32.0014H6.74436C6.74436 26.9967 10.676 22.9376 15.5294 22.9376C20.3828 22.9376 24.3144 26.994 24.3144 32.0014H26.2421C26.2421 25.8993 21.4465 20.9514 15.5294 20.9514H15.5268Z" fill="#E32527"/>
<path fill-rule="evenodd" clip-rule="evenodd" d="M15.5267 24.9263C11.7396 24.9263 8.66943 28.0939 8.66943 32.0012H10.5971C10.5971 29.1913 12.8033 26.9152 15.5267 26.9152C18.2502 26.9152 20.4563 29.1913 20.4563 32.0012H22.384C22.384 28.0939 19.3139 24.9263 15.5267 24.9263Z" fill="#E32527"/>
<path fill-rule="evenodd" clip-rule="evenodd" d="M15.5268 28.9041C13.8696 28.9041 12.5249 30.2914 12.5249 32.0012H18.5313C18.5313 30.2914 17.1866 28.9041 15.5294 28.9041H15.5268Z" fill="#E32527"/>
<path fill-rule="evenodd" clip-rule="evenodd" d="M29.6931 8.29711L16.8872 0.669409C16.0205 0.151864 15.033 0.151864 14.1663 0.669409L1.36043 8.29711C0.496373 8.81195 0 9.6953 0 10.725V29.194C0 30.7385 1.22124 32.0012 2.72086 32.0012H3.04127C3.04127 24.8884 8.63006 19.1195 15.5268 19.1195C22.4235 19.1195 28.0123 24.8857 28.0123 32.0012H28.3353C29.8323 32.0012 31.0535 30.7413 31.0535 29.194V10.725C31.0535 9.6953 30.5598 8.81195 29.6957 8.29711H29.6931ZM14.97 15.5238H12.1362V12.6028H14.97V15.5238ZM14.97 11.4512H12.1362V8.52743H14.97V11.4512ZM18.9147 15.5238H16.0835V12.6028H18.9147V15.5238ZM18.9147 11.4512H16.0835V8.52743H18.9147V11.4512Z" fill="#012B55"/>
</svg>
