<svg width="26" height="31" viewBox="0 0 26 31" fill="none" xmlns="http://www.w3.org/2000/svg">
<path d="M22.5208 14.6885L18.5899 14.3365C17.7977 14.2648 17.1001 13.7873 16.7466 13.0747L16.1731 11.9355C15.2296 10.0464 12.9333 9.27931 11.0442 10.2228C10.3933 10.5475 9.84912 11.0515 9.47416 11.6753L8.54862 13.2274C8.17295 13.8483 7.527 14.2562 6.80506 14.3286L3.44053 14.6648C1.48476 14.8598 -0.00429225 16.5073 9.2959e-06 18.4739V27.1766C9.2959e-06 29.288 1.71202 31 3.82337 31H22.1766C24.2887 31 26 29.288 26 27.1766V18.4968C26.005 16.5167 24.493 14.862 22.5208 14.6885ZM7.64744 26.4117C6.8029 26.4117 6.11824 25.727 6.11824 24.8825C6.11824 24.0379 6.8029 23.3533 7.64744 23.3533C8.49198 23.3533 9.17664 24.0379 9.17664 24.8825C9.17377 25.7263 8.49054 26.4095 7.64744 26.4117ZM7.64744 21.0584C6.8029 21.0584 6.11824 20.3737 6.11824 19.5292C6.11824 18.6846 6.8029 18 7.64744 18C8.49198 18 9.17664 18.6846 9.17664 19.5292C9.17377 20.373 8.49054 21.0562 7.64744 21.0584ZM13 26.4117C12.1555 26.4117 11.4708 25.727 11.4708 24.8825C11.4708 24.0379 12.1555 23.3533 13 23.3533C13.8445 23.3533 14.5292 24.0379 14.5292 24.8825C14.5263 25.7263 13.8431 26.4095 13 26.4117ZM13 21.0584C12.1555 21.0584 11.4708 20.3737 11.4708 19.5292C11.4708 18.6846 12.1555 18 13 18C13.8445 18 14.5292 18.6846 14.5292 19.5292C14.5263 20.373 13.8431 21.0562 13 21.0584ZM18.3533 26.4117C17.5087 26.4117 16.8241 25.727 16.8241 24.8825C16.8241 24.0379 17.5087 23.3533 18.3533 23.3533C19.1978 23.3533 19.8825 24.0379 19.8825 24.8825C19.8796 25.7263 19.1964 26.4095 18.3533 26.4117ZM18.3533 21.0584C17.5087 21.0584 16.8241 20.3737 16.8241 19.5292C16.8241 18.6846 17.5087 18 18.3533 18C19.1978 18 19.8825 18.6846 19.8825 19.5292C19.8796 20.373 19.1964 21.0562 18.3533 21.0584Z" fill="white"/>
<path d="M25.6816 9.38329L25.0938 6.12487C24.7518 4.18415 23.3645 2.59186 21.4891 1.98678C18.7447 1.08632 15.892 0.555799 13.0071 0.41098C10.1445 0.509916 7.30687 0.98667 4.56894 1.82977C2.59381 2.4069 1.12627 4.06873 0.798635 6.10049L0.278148 9.28148C0.0731074 10.5318 0.920512 11.7119 2.17083 11.9162C2.28697 11.9355 2.40526 11.9456 2.52284 11.9463L5.71172 11.9692C6.97852 11.9778 8.01304 10.9577 8.02165 9.69085C8.02308 9.53169 8.00731 9.37253 7.97505 9.21624L7.85604 8.63554C7.78076 8.295 7.94852 7.94729 8.26182 7.79458C9.72291 7.06977 11.3159 6.64822 12.9448 6.55574C14.5987 6.67762 16.2125 7.12569 17.693 7.87416C17.9984 8.02687 18.164 8.36526 18.098 8.70006L17.9761 9.34027C17.7403 10.5849 18.5576 11.7857 19.8029 12.0216C19.9384 12.0474 20.076 12.061 20.2137 12.0617L23.4033 12.0847H23.4197C24.6866 12.0847 25.7139 11.0573 25.7139 9.7905C25.7139 9.65357 25.7017 9.51735 25.6773 9.38329H25.6795H25.6816Z" fill="white"/>
</svg>
